<?xml version="1.0" encoding="utf-8"?>
<!-- Generator: Adobe Illustrator 22.0.0, SVG Export Plug-In . SVG Version: 6.00 Build 0)  -->
<svg version="1.0" id="图层_1" xmlns="http://www.w3.org/2000/svg" xmlns:xlink="http://www.w3.org/1999/xlink" x="0px" y="0px"
	 viewBox="0 0 603.2 165.1" style="enable-background:new 0 0 603.2 165.1;" xml:space="preserve">
<style type="text/css">
	.st0{fill:#FFFFFF;}
</style>
<path class="st0" d="M49.8,134l20.8-9.2l28,12.3c0.8,0.4,1.8,0.4,2.7,0l28-12.3l20.8,9.2l-50.2,22.1L49.8,134z M137.5,121.2
	l17.3-7.6v15.2L137.5,121.2z M73.9,119l0-18.6l22.7,10V129L73.9,119z M45,87.7l22.2,9.8l0,21.5L45,128.8L45,87.7z M78.8,95.4
	l21.1-9.3l21.1,9.3l-21.1,9.3L78.8,95.4z M13.9,92.7l0-18.6l24.5,10.7v18.7L13.9,92.7z M103.2,110.4l82.6-36.4v18.7L103.2,129V110.4
	z M161.5,60.5l19.4,8.5l-19.4,8.5V60.5z M49.7,82.5l50.2-23.2l50.2,23.2l-20.9,9.2l-28-12.3c-0.8-0.4-1.8-0.4-2.7,0l-28,12.3
	L49.7,82.5z M133.3,67.4l0-22.2l21.5-10V55c0,0.2,0,0.5,0,0.7l0,21.7L133.3,67.4z M45,35.1l17.3,7.6L45,50.3V35.1z M103.2,53.5V34.9
	l23.4,10.3l0,19.1L103.2,53.5z M18.8,69l77.7-34.1v18.6L41.6,79L18.8,69z M49.9,30l50-22l50.2,22.1L130,39.4l-28.7-12.6
	c-0.3-0.1-0.6-0.2-0.7-0.2l-0.6-0.2L70.6,39.1L49.9,30z M98.6,1.3L40.2,27l-0.4,0.2c-0.3,0.2-0.5,0.4-0.7,0.6l-0.3,0.4
	c-0.3,0.5-0.5,1.1-0.5,1.7v23.2L9.2,66L8,66.9l-0.3,0.4c-0.3,0.5-0.5,1.1-0.5,1.7v25.9c0,1.3,0.8,2.5,2,3l29.1,12.8l0,23.4
	c0,1.3,0.8,2.5,2,3l58.2,25.6c0.4,0.2,0.9,0.3,1.4,0.3c0.5,0,0.9-0.1,1.3-0.3l58.3-25.7c1.4-0.6,2-2,2-3.2v-23.2l29-12.7
	c1.2-0.5,2-1.7,2-3l0-26.2l0-0.3c0-0.3-0.1-0.6-0.3-1l-0.3-0.5c-0.1-0.2-0.3-0.3-0.5-0.5l-29.8-13.3l0-23.4l0-0.3
	c-0.1-0.4-0.2-0.8-0.4-1.2c-0.1-0.2-0.2-0.3-0.4-0.5c-0.1-0.1-0.3-0.4-0.7-0.6L101.3,1.3c-0.4-0.2-0.9-0.3-1.4-0.3
	C99.5,1,99,1.1,98.6,1.3"/>
<path class="st0" d="M371.4,41.5c-22.4,0-40.6,18.2-40.6,40.6c0,7.8,2.2,15.4,6.5,22c3.8-2.3,7-5.5,9.4-9.2c-2-3.9-3.1-8.3-3.1-12.7
	c0-15.3,12.4-27.7,27.7-27.7s27.7,12.4,27.7,27.7c0,15.3-12.4,27.7-27.7,27.7c-3.5,0-6.9-0.7-10.1-2c-2.1,3.9-4.9,7.4-8.1,10.4
	c5.7,2.9,11.9,4.4,18.3,4.4c22.4,0,40.6-18.2,40.6-40.6C412,59.7,393.8,41.5,371.4,41.5"/>
<path class="st0" d="M279.1,82c0,10.5,4,20.1,10.6,27.3c-4-5.7-6.4-12.6-6.4-20.1c0-19.3,15.7-35,35-35c0.8,0,1.6,0,2.3,0.1
	c2.5,0.1,4.9,0.5,7.2,1.2c2.4-3.9,5.5-7.3,9.1-10.2c-5.4-2.6-11.2-3.9-17.3-3.9C297.3,41.5,279.1,59.7,279.1,82"/>
<path class="st0" d="M283.3,89.2c0,7.5,2.4,14.4,6.4,20.1c7.4,8.2,18.1,13.3,30,13.3c6.3,0,12.2-1.4,17.5-4
	c13-6.2,22.2-19.1,23-34.3l0.1-1.1h-7.5h-5.3l-0.1,0.9c-1.1,14.4-13.2,25.6-27.7,25.6c-15.3,0-27.7-12.4-27.7-27.7
	c0-15.3,12.4-27.7,27.7-27.7c0.3,0,0.6,0,0.9,0c-0.8-0.1-1.6-0.1-2.3-0.1C299,54.2,283.3,69.9,283.3,89.2"/>
<rect x="251.9" y="45.1" class="st0" width="14.8" height="75.5"/>
<path class="st0" d="M460.4,42.9c-7.3,0-14,3-19.8,9l-2.4,2.5v-9.3h-14.9v75.5h14.9V84.2c0-10.1,1.2-17.1,3.8-21.2
	c2.7-4.4,7.3-6.6,13.7-6.6c5.8,0,10,1.7,12.3,5.1c2.2,3.2,3.4,8.7,3.4,16.8v42.3h14.9V73.9c0-10.6-2-18.3-6.1-22.9
	C475.5,45.6,468.8,42.9,460.4,42.9"/>
<rect x="500.8" y="45.1" class="st0" width="14.8" height="75.5"/>
<path class="st0" d="M596.7,45.1h-58.1v14h31.1L531.2,120c-0.1,0.2,0,0.5,0.3,0.5h63v-14.2h-36.1L596.7,45.1z"/>
</svg>
