<?xml version="1.0" encoding="utf-8"?>
<!-- Generator: Adobe Illustrator 22.0.0, SVG Export Plug-In . SVG Version: 6.00 Build 0)  -->
<svg version="1.0" id="图层_1" xmlns="http://www.w3.org/2000/svg" xmlns:xlink="http://www.w3.org/1999/xlink" x="0px" y="0px"
	 viewBox="0 0 603.2 165.1" style="enable-background:new 0 0 603.2 165.1;" xml:space="preserve">
<style type="text/css">
	.st0{clip-path:url(#SVGID_2_);fill:url(#SVGID_3_);}
	.st1{clip-path:url(#SVGID_5_);fill:url(#SVGID_6_);}
	.st2{clip-path:url(#SVGID_8_);fill:url(#SVGID_9_);}
</style>
<g>
	<defs>
		<path id="SVGID_1_" d="M49,134.1l20.7-9.1l27.9,12.2c0.8,0.4,1.8,0.4,2.7,0l27.9-12.2l20.7,9.1l-50,22L49,134.1z M136.5,121.3
			l17.3-7.6v15.2L136.5,121.3z M73.1,119.1l0-18.5l22.6,10v18.5L73.1,119.1z M44.3,87.9l22.1,9.8l0,21.4l-22.2,9.8L44.3,87.9z
			 M78,95.5l21-9.2l21,9.2l-21,9.3L78,95.5z M13.3,92.9l0-18.5L37.6,85v18.6L13.3,92.9z M102.3,110.6l82.3-36.3V93l-82.3,36.1V110.6
			z M160.4,60.8l19.3,8.5l-19.3,8.5V60.8z M49,82.8l50-23.1l50,23.1l-20.8,9.2l-27.9-12.3c-0.8-0.4-1.8-0.4-2.7,0L69.7,91.9L49,82.8
			z M132.3,67.7l0-22.2l21.4-10v19.7c0,0.2,0,0.4,0,0.7l0,21.7L132.3,67.7z M44.3,35.5l17.3,7.6l-17.3,7.6V35.5z M102.3,53.8V35.3
			l23.4,10.3l0,19.1L102.3,53.8z M18.2,69.3l77.5-34v18.5L40.9,79.2L18.2,69.3z M49.2,30.4L99,8.4l50,22L129,39.8l-28.6-12.6
			c-0.3-0.1-0.6-0.2-0.7-0.2L99,26.8L69.8,39.5L49.2,30.4z M97.7,1.8L39.5,27.4l-0.4,0.2c-0.3,0.2-0.5,0.4-0.7,0.6l-0.3,0.4
			c-0.3,0.5-0.5,1.1-0.5,1.7v23.2l-29,12.7l-1.2,0.9l-0.3,0.4c-0.3,0.5-0.5,1.1-0.5,1.7v25.8c0,1.3,0.8,2.5,2,3l29,12.7l0,23.3
			c0,1.3,0.8,2.5,2,3l58,25.5c0.4,0.2,0.9,0.3,1.4,0.3c0.5,0,0.9-0.1,1.3-0.3l58.1-25.6c1.4-0.6,2-2,2-3.2v-23.2l28.9-12.7
			c1.2-0.5,2-1.7,2-3l0-26.1l0-0.3c0-0.3-0.1-0.6-0.3-1l-0.3-0.5c-0.1-0.2-0.3-0.3-0.5-0.5l-29.7-13.3l0-23.3l0-0.3
			c-0.1-0.4-0.2-0.8-0.4-1.2c-0.1-0.2-0.2-0.3-0.4-0.5c-0.1-0.1-0.3-0.4-0.7-0.6L100.3,1.8c-0.4-0.2-0.9-0.3-1.4-0.3
			C98.5,1.5,98.1,1.6,97.7,1.8"/>
	</defs>
	<clipPath id="SVGID_2_">
		<use xlink:href="#SVGID_1_"  style="overflow:visible;"/>
	</clipPath>
	
		<linearGradient id="SVGID_3_" gradientUnits="userSpaceOnUse" x1="561.333" y1="852.0524" x2="562.582" y2="852.0524" gradientTransform="matrix(126.5342 -64.0007 -64.0007 -126.5342 -16475.9238 143861.6719)">
		<stop  offset="0" style="stop-color:#EA550F"/>
		<stop  offset="0.3609" style="stop-color:#D84014"/>
		<stop  offset="1" style="stop-color:#B11120"/>
	</linearGradient>
	<polygon class="st0" points="-58.4,34.4 153.6,-72.9 256.3,130.1 44.2,237.4 	"/>
</g>
<g>
	<path d="M369.6,41.8c-22.3,0-40.4,18.1-40.4,40.4c0,7.8,2.2,15.4,6.5,21.9c3.8-2.3,7-5.5,9.4-9.2c-2-3.9-3.1-8.3-3.1-12.7
		c0-15.2,12.4-27.7,27.7-27.7s27.7,12.4,27.7,27.7c0,15.2-12.4,27.7-27.7,27.7c-3.5,0-6.9-0.7-10.1-2c-2.1,3.9-4.9,7.4-8.1,10.4
		c5.6,2.9,11.9,4.4,18.2,4.4c22.3,0,40.4-18.1,40.4-40.4C410,60,391.9,41.8,369.6,41.8"/>
	<g>
		<defs>
			<path id="SVGID_4_" d="M277.6,82.2c0,10.5,4,20,10.5,27.2c-4-5.7-6.3-12.6-6.3-20c0-19.2,15.6-34.8,34.8-34.8
				c0.8,0,1.6,0,2.3,0.1c2.5,0.1,4.9,0.5,7.2,1.2c2.4-3.9,5.5-7.3,9.1-10.1c-5.4-2.6-11.2-3.9-17.2-3.9
				C295.7,41.8,277.6,60,277.6,82.2"/>
		</defs>
		<clipPath id="SVGID_5_">
			<use xlink:href="#SVGID_4_"  style="overflow:visible;"/>
		</clipPath>
		
			<linearGradient id="SVGID_6_" gradientUnits="userSpaceOnUse" x1="560.0393" y1="856.6026" x2="561.2882" y2="856.6026" gradientTransform="matrix(64.329 -16.3301 -16.3301 -64.329 -21756.4277 64331.7266)">
			<stop  offset="0" style="stop-color:#EA550F"/>
			<stop  offset="1" style="stop-color:#B11120"/>
		</linearGradient>
		<polygon class="st1" points="261.5,45.9 331.7,28.1 351.3,105.3 281.1,123.2 		"/>
	</g>
	<g>
		<defs>
			<path id="SVGID_7_" d="M281.8,89.4c0,7.5,2.3,14.4,6.3,20c7.4,8.1,18.1,13.2,29.9,13.2c6.2,0,12.2-1.4,17.4-4
				c12.9-6.2,22.1-19,22.9-34.2l0.1-1.1h-7.5h-5.3l-0.1,0.9c-1.1,14.3-13.2,25.6-27.6,25.6c-15.2,0-27.7-12.4-27.7-27.7
				c0-15.2,12.4-27.7,27.7-27.7c0.3,0,0.6,0,0.9,0c-0.8-0.1-1.5-0.1-2.3-0.1C297.4,54.5,281.8,70.1,281.8,89.4"/>
		</defs>
		<clipPath id="SVGID_8_">
			<use xlink:href="#SVGID_7_"  style="overflow:visible;"/>
		</clipPath>
		
			<linearGradient id="SVGID_9_" gradientUnits="userSpaceOnUse" x1="573.3126" y1="838.6407" x2="574.5615" y2="838.6407" gradientTransform="matrix(-60.0356 -4.107 -4.107 60.0356 38208.207 -47903.4102)">
			<stop  offset="0" style="stop-color:#EA550F"/>
			<stop  offset="1" style="stop-color:#B11120"/>
		</linearGradient>
		<polygon class="st2" points="358.1,127.9 277.1,122.3 282.1,49.3 363.1,54.9 		"/>
	</g>
	<rect x="250.5" y="45.4" width="14.7" height="75.2"/>
	<path d="M458.3,43.2c-7.3,0-13.9,3-19.7,9l-2.4,2.5v-9.3h-14.8v75.2h14.8V84.4c0-10.1,1.2-17,3.8-21.2c2.7-4.4,7.3-6.6,13.6-6.6
		c5.8,0,9.9,1.7,12.2,5.1c2.2,3.2,3.4,8.7,3.4,16.7v42.2H484V74.2c0-10.6-2-18.3-6-22.9C473.3,46,466.7,43.2,458.3,43.2"/>
	<rect x="498.5" y="45.4" width="14.7" height="75.2"/>
	<path d="M594.1,45.4h-57.9v14h31l-38.4,60.7c-0.1,0.2,0,0.5,0.3,0.5h62.8v-14.2h-36L594.1,45.4z"/>
</g>
</svg>
